<?xml version="1.0" encoding="utf-8"?>
<!-- Generator: Adobe Illustrator 26.5.0, SVG Export Plug-In . SVG Version: 6.00 Build 0)  -->
<svg version="1.1" id="Layer_1" xmlns="http://www.w3.org/2000/svg" xmlns:xlink="http://www.w3.org/1999/xlink" x="0px" y="0px"
	 viewBox="0 0 800 800" style="enable-background:new 0 0 800 800;" xml:space="preserve">
<style type="text/css">
	.st0{fill:#0D9988;}
</style>
<path class="st0" d="M395.4,249.6L282.3,363.6c-10.9,11.7-10.9,29.3,0,41.1c5,5,12.6,8.4,20.1,8.4h161.7c3.4,0,5,2.5,5,5
	c0,1.7-0.8,3.4-1.7,4.2l-97.2,87.1c-18.4,16.8-46.9,16.8-65.4,0L205.2,418c-20.1-18.4-21.8-49.4-3.4-68.7c0.8-0.8,0.8-0.8,1.7-1.7
	l231.3-231.3c5-5,7.5-11.7,7.5-18.4V25.9c0-5.9-4.2-10.9-10.1-10.9c-3.4,0-5.9,0.8-7.5,3.4L138.2,303.2
	c-38.5,37.7-38.5,99.7,0,138.2c1.7,1.7,3.4,3.4,5.9,5l127.4,108.9c38.5,33.5,96.4,31,132.4-5l113.1-113.1
	c10.9-11.7,10.9-29.3,0-41.1c-5.9-5-12.6-8.4-20.1-8.4H337.6c-3.4,0-5-2.5-5-5c0-1.7,0.8-2.5,1.7-4.2l93.8-86.3
	c18.4-16.8,47.8-16.8,66.2,0l98.9,90.5c20.1,18.4,21.8,49.4,3.4,68.7c-0.8,0.8-0.8,0.8-1.7,1.7L364.4,684.5c-5,5-7.5,11.7-7.5,18.4
	v72.1c0,5.9,4.2,10.1,10.1,10.1c2.5,0,5.9-0.8,7.5-3.4l287.4-284.9c38.5-37.7,38.5-99.7,0-137.4c-1.7-1.7-3.4-3.4-5.9-5L528.6,243.7
	C489.2,211.1,431.4,213.6,395.4,249.6z"/>
</svg>
