<?xml version="1.0" encoding="utf-8"?>
<!-- Generator: Adobe Illustrator 26.3.1, SVG Export Plug-In . SVG Version: 6.00 Build 0)  -->
<svg version="1.1" id="Layer_1" xmlns="http://www.w3.org/2000/svg" xmlns:xlink="http://www.w3.org/1999/xlink" x="0px" y="0px"
	 viewBox="0 0 354.8 91.8" style="enable-background:new 0 0 354.8 91.8;" xml:space="preserve">
<style type="text/css">
	.st0{fill:#0D9988;}
	.st1{fill:#203242;}
</style>
<path class="st0" d="M39.2,27.9L25.7,41.5c-1.3,1.4-1.3,3.5,0,4.9c0.6,0.6,1.5,1,2.4,1h19.3c0.4,0,0.6,0.3,0.6,0.6
	c0,0.2-0.1,0.4-0.2,0.5L36.2,58.9c-2.2,2-5.6,2-7.8,0L16.5,48c-2.4-2.2-2.6-5.9-0.4-8.2c0.1-0.1,0.1-0.1,0.2-0.2L43.9,12
	c0.6-0.6,0.9-1.4,0.9-2.2V1.2c0-0.7-0.5-1.3-1.2-1.3c-0.4,0-0.7,0.1-0.9,0.4l-34.2,34c-4.6,4.5-4.6,11.9,0,16.5
	c0.2,0.2,0.4,0.4,0.7,0.6l15.2,13c4.6,4,11.5,3.7,15.8-0.6l13.5-13.5c1.3-1.4,1.3-3.5,0-4.9c-0.7-0.6-1.5-1-2.4-1H32.3
	c-0.4,0-0.6-0.3-0.6-0.6c0-0.2,0.1-0.3,0.2-0.5L43.1,33c2.2-2,5.7-2,7.9,0l11.8,10.8c2.4,2.2,2.6,5.9,0.4,8.2
	c-0.1,0.1-0.1,0.1-0.2,0.2L35.5,79.8c-0.6,0.6-0.9,1.4-0.9,2.2v8.6c0,0.7,0.5,1.2,1.2,1.2c0.3,0,0.7-0.1,0.9-0.4l34.3-34
	c4.6-4.5,4.6-11.9,0-16.4c-0.2-0.2-0.4-0.4-0.7-0.6L55.1,27.2C50.4,23.3,43.5,23.6,39.2,27.9z"/>
<path class="st1" d="M139.5,44.7c0.1-8.1-6-15.3-15.9-15.3c-9.6,0-16.3,6.7-16.3,15.5s6.2,15.9,17.6,15.9c8.9,0,13.1-6.3,13.9-9.4
	h-6.9c-0.6,1.8-3.3,3.5-7.5,3.5c-6.7,0-9.9-4.2-9.9-7.8h25L139.5,44.7z M114.6,42.7c0-4,3.7-7.4,9.2-7.4c5.4,0,8.6,3,8.6,7.4H114.6z
	"/>
<path class="st1" d="M191.5,44.7c0.1-8.1-6-15.3-15.9-15.3c-9.6,0-16.3,6.7-16.3,15.5s6.2,15.9,17.6,15.9c8.9,0,13.1-6.3,13.9-9.4
	h-6.9c-0.6,1.8-3.3,3.5-7.5,3.5c-6.7,0-9.9-4.2-9.9-7.8h25L191.5,44.7z M166.6,42.7c0-4,3.7-7.4,9.2-7.4s8.6,3,8.6,7.4H166.6z"/>
<path class="st1" d="M147,55.1l-0.3,0.2l-0.8-0.9c0.5-0.5,1.1-0.9,1.7-1.4c0.7-0.7,1.2-1.5,1.4-2.5L159.3,17H153l-10.2,34.6
	c-0.2,0.9-0.2,1.9-0.1,2.8c0.4,2.1,1.8,3.8,3.8,4.5c1.8,0.7,3.7,1,5.6,0.9h4.1v-5.8h-5.2C149.5,53.9,148.1,54.2,147,55.1z"/>
<path class="st1" d="M220.4,17v15.7c0,1.8,0.9,3.9,1.5,5.6l-1.1,0.4c-0.6-1.7-0.9-4.1-2.2-5.4c-2.4-2.5-5.7-3.9-9.2-3.8
	c-8.6,0-14.6,7.2-14.7,15.8c-0.1,8.8,5.9,15.6,14.7,15.6c3.5,0.1,6.8-1.2,9.2-3.7c1.2-1.2,1.6-3.7,2.2-5.3l1.1,0.4
	c-0.6,1.7-1.5,3.8-1.5,5.6v2.1h6.2V17H220.4z M210,55c-6.1,0-9.2-4.1-9.2-9.7s3.1-10.1,9.2-10.1s9.5,4.6,9.5,10.1S216.2,55,210,55z"
	/>
<path class="st1" d="M262.7,29.4c-3.5-0.1-6.8,1.2-9.2,3.7c-1.2,1.2-1.5,3.7-2.1,5.3l-1.1-0.4c0.6-1.7,1.5-3.8,1.5-5.6v-2h-6.2v44.3
	h6.2V57.6c-0.2-1.9-0.7-3.8-1.5-5.6l1.1-0.4c0.5,1.7,0.9,4.1,2.2,5.4c2.4,2.5,5.8,3.9,9.2,3.8c8.6,0,14.5-7.2,14.7-15.8
	C277.6,36.2,271.6,29.4,262.7,29.4z M262.1,55c-6.1,0-9.5-4.5-9.5-10.1s3.4-9.6,9.5-9.6s9.2,4.1,9.2,9.6S268.2,55,262.1,55z"/>
<path class="st1" d="M232.9,30.4v29.5h6.2V30.4H232.9z M232.9,19.9v6.5h6.2v-6.5H232.9z"/>
<path class="st1" d="M280.6,30.4v29.5h6.2V30.4H280.6z M280.6,19.9v6.5h6.2v-6.5H280.6z"/>
<path class="st1" d="M301.9,35c0.5,0.6,1.3,0.9,2.1,1h5.8v-5.6h-7.7V19.9h-6.2v10.5H290V36h5.9v15c0,4.6,2.2,9,7.3,9h6.6v-5.9H306
	c-2.6,0-3.7-0.6-3.9-2.6c0-0.1,0-0.2,0-0.4V37.6c-0.1-0.6-0.4-1.3-0.8-1.7c-0.5-0.6-1.1-1.1-1.6-1.6l0.8-0.8
	C301.1,34.1,301.2,34.2,301.9,35z"/>
<path class="st1" d="M96.1,35c0.5,0.6,1.3,0.9,2.1,1h5.8v-5.6h-7.7V19.9h-6.2v10.5h-5.9V36h5.9v15c0,4.6,2.2,9,7.3,9h6.8v-5.9h-3.9
	c-2.6,0-3.7-0.6-3.9-2.6c0-0.1,0-0.2,0-0.4V37.6c-0.1-0.6-0.4-1.3-0.8-1.7c-0.5-0.6-1.1-1.1-1.7-1.6l0.8-0.8
	C95.4,34.1,95.4,34.2,96.1,35z"/>
<path class="st1" d="M340.4,30.4l-8.5,18.5c-0.9,1.8-0.8,4.4-0.8,6.4h-1.2c0-2,0-4.5-0.8-6.4l-8.5-18.5h-7.4L327,59.2l-2,4
	c-1.7,3.4-2.8,5.4-6.4,5.4h-5.4v6.1h8c5.1,0,7.6-3.9,10.1-9.6c0.9-1.9,1.6-3.4,2.5-5.2l14-29.5L340.4,30.4z"/>
</svg>
