<?xml version="1.0" encoding="UTF-8"?>
<svg id="Layer_2" data-name="Layer 2" xmlns="http://www.w3.org/2000/svg" xmlns:xlink="http://www.w3.org/1999/xlink" viewBox="0 0 1169.13 637.11">
  <defs>
    <style>
      .cls-1 {
        fill: none;
      }

      .cls-2 {
        clip-path: url(#clippath);
      }

      .cls-3 {
        fill: #e8f3ef;
      }

      .cls-4 {
        fill: #c6e5df;
      }
    </style>
    <clipPath id="clippath">
      <ellipse class="cls-1" cx="584.56" cy="318.56" rx="591.29" ry="305.71" transform="translate(-47.01 108.06) rotate(-10.16)"/>
    </clipPath>
  </defs>
  <g id="Layer_1-2" data-name="Layer 1">
    <g class="cls-2">
      <ellipse class="cls-3" cx="584.62" cy="318.45" rx="591.29" ry="305.71" transform="translate(-46.99 108.07) rotate(-10.16)"/>
      <path class="cls-4" d="M425.89,328.25l-62.91,131.68c-6.36,13.06-.41,28.57,13.29,34.64,6.63,2.93,14.21,3.22,20.97,.58l143.65-50.47c2.73-.69,5.64,.62,6.59,3.15,.48,1.28,.38,2.69-.28,3.89l-58.31,103.94c-11,19.81-35.87,28.55-57.72,20.28l-118.98-45.83c-23.57-9.02-35.01-34.56-25.55-57.04,.3-.7,.61-1.4,.95-2.09L417.02,203.59c2.73-5.56,2.98-11.94,.76-17.71l-23.48-60.77c-2.13-4.78-7.89-7.07-12.93-5.1-2.13,.83-3.89,2.35-4.97,4.29L214.91,455.03c-21.38,44.04-1.27,96.27,44.91,116.65,2.17,.96,4.37,1.83,6.61,2.62l148.72,52.58c45.22,16.06,95.76-3.92,115.8-45.77l62.88-131.76c6.28-13.15,.19-28.66-13.59-34.65-6.57-2.85-14.05-3.12-20.84-.79l-139.72,49.09c-2.58,.94-5.46-.33-6.41-2.81-.48-1.25-.39-2.64,.25-3.83l55.3-101.97c10.97-20.1,36.16-28.95,58.19-20.44l117.87,45.22c23.63,9,35.14,34.56,25.71,57.09-.28,.66-.57,1.31-.88,1.95l-129.67,267.65c-2.68,5.55-2.94,11.88-.8,17.64l23.48,60.77c1.95,4.85,7.61,7.35,12.72,5.57,2.47-.86,4.47-2.63,5.57-4.9l161.22-330.31c21.57-43.95,1.7-96.26-44.4-116.83-2.19-.98-4.42-1.87-6.68-2.68l-149.07-52.79c-45.36-16.19-96.13,3.87-116.18,45.91Z"/>
    </g>
  </g>
</svg>