<?xml version="1.0" encoding="utf-8"?>
<!-- Generator: Adobe Illustrator 26.5.0, SVG Export Plug-In . SVG Version: 6.00 Build 0)  -->
<svg version="1.1" id="Layer_1" xmlns="http://www.w3.org/2000/svg" xmlns:xlink="http://www.w3.org/1999/xlink" x="0px" y="0px"
	 viewBox="0 0 787.5 836" style="enable-background:new 0 0 787.5 836;" xml:space="preserve">
<style type="text/css">
	.st0{opacity:0.5;fill:#C6E5DF;}
</style>
<path class="st0" d="M385.2,303.4L234.9,450.2c-15,14.5-14.8,38.3,0.8,53.4c7.5,7.3,17.6,11.3,28,11.2l219.1,3.1
	c4.1,0.4,7.3,3.7,7.4,7.5c0,1.9-0.8,3.8-2.3,5.1L357.5,642c-24.7,21.3-62.7,20.8-88-1.3L131.4,519.9c-27.4-23.9-30.2-64.1-6.2-89.8
	c0.8-0.8,1.5-1.5,2.3-2.3L435,130.6c6.5-6.1,9.9-14.6,9.8-23.6l-1.5-93.8c-0.5-7.5-7.1-13.5-14.9-13.2c-3.3,0.1-6.4,1.3-8.8,3.3
	L37.3,370.2c-50.8,48.9-49.6,129.4,2.8,179.9c2.4,2.4,5,4.6,7.6,6.9l174.9,144.8c53.1,44.1,131.3,42.2,179.2-4.5l150.3-146.9
	c15-14.6,14.5-38.6-1.1-53.5c-7.5-7.1-17.5-11.2-27.8-11.5l-213.1-2.9c-3.9,0-7.3-3.2-7.3-7c0-1.9,0.8-3.8,2.3-5.1l125.3-110.3
	c24.8-21.8,63.2-21.1,88.8,1.3L656.1,481c27.5,23.8,30.3,64.1,6.4,89.9c-0.6,0.8-1.4,1.5-2.2,2.2L352.2,870.4
	c-6.4,6.1-9.8,14.6-9.8,23.4l1.5,93.8c0.3,7.5,6.6,13.8,14.4,13.9c3.8,0,7.4-1.3,9.9-3.8l381.6-366.4c51-48.7,50.1-129.3-2-179.9
	c-2.4-2.4-5.1-4.7-7.6-6.9L564.9,299.4C511.7,254.6,433.1,256.7,385.2,303.4z"/>
</svg>
